<svg id="レイヤー_1" data-name="レイヤー 1" xmlns="http://www.w3.org/2000/svg" viewBox="0 0 1000 1000"><defs><style>.cls-1{fill:#fff;}.cls-2,.cls-4{fill:#666;}.cls-3{fill:#e79012;}.cls-4{opacity:0.5;isolation:isolate;}</style></defs><title>icon</title><circle class="cls-1" cx="500" cy="500" r="500"/><path class="cls-2" d="M205.35,573.93c-15.1-15.1-24.17-40.78-24.17-74s7.56-58.92,24.17-74c12.09-12.09,30.21-19.64,49.85-19.64s37.77,6,49.85,19.64c15.11,16.61,24.17,40.78,24.17,74s-7.55,58.91-24.17,74C293,586,274.84,593.57,255.2,593.57S217.44,587.53,205.35,573.93Zm16.62-74c0,39.27,10.57,60.42,33.23,60.42s33.24-19.64,33.24-60.42c0-39.28-10.58-60.43-33.24-60.43S222,460.64,222,499.92Z" transform="translate(-12 -12)"/><path class="cls-2" d="M737.08,573.93c-15.11-15.1-24.17-40.78-24.17-74s7.55-58.92,24.17-74c12.08-12.09,30.21-19.64,49.84-19.64s37.77,6,49.85,19.64c15.11,16.61,24.17,40.78,24.17,74s-7.55,58.91-24.17,74c-12.08,12.09-30.21,19.64-49.85,19.64C765.78,593.57,749.16,587.53,737.08,573.93Zm16.61-74c0,39.27,10.58,60.42,33.23,60.42s33.24-19.64,33.24-60.42c0-39.28-10.58-60.43-33.24-60.43S753.69,460.64,753.69,499.92Z" transform="translate(-12 -12)"/><circle class="cls-3" cx="512.08" cy="549.85" r="158.61"/><path class="cls-4" d="M637.38,587.53H412.3c-13.59,0-25.68-12.09-25.68-25.68s12.09-25.68,25.68-25.68H637.38c13.59,0,25.68,12.08,25.68,25.68S651,587.53,637.38,587.53Z" transform="translate(-12 -12)"/></svg>